{
	"patcher" : 	{
		"fileversion" : 1,
		"rect" : [ 103.0, 99.0, 768.0, 671.0 ],
		"bglocked" : 0,
		"defrect" : [ 103.0, 99.0, 768.0, 671.0 ],
		"openrect" : [ 0.0, 0.0, 0.0, 0.0 ],
		"openinpresentation" : 0,
		"default_fontsize" : 12.0,
		"default_fontface" : 0,
		"default_fontname" : "Arial",
		"gridonopen" : 0,
		"gridsize" : [ 15.0, 15.0 ],
		"gridsnaponopen" : 0,
		"toolbarvisible" : 1,
		"boxanimatetime" : 200,
		"imprint" : 0,
		"enablehscroll" : 1,
		"enablevscroll" : 1,
		"boxes" : [ 			{
				"box" : 				{
					"fontname" : "Arial",
					"fontsize" : 12.0,
					"frgb" : [ 0.933333, 0.937255, 0.968627, 1.0 ],
					"id" : "obj-12",
					"maxclass" : "comment",
					"numinlets" : 1,
					"numoutlets" : 0,
					"patching_rect" : [ 416.0, 316.0, 307.0, 20.0 ],
					"text" : "IRCAM's psychoirtrist~ object is required fot this module"
				}

			}
, 			{
				"box" : 				{
					"fontname" : "Arial",
					"fontsize" : 12.0,
					"frgb" : [ 0.933333, 0.937255, 0.968627, 1.0 ],
					"id" : "obj-10",
					"linecount" : 3,
					"maxclass" : "comment",
					"numinlets" : 1,
					"numoutlets" : 0,
					"patching_rect" : [ 417.0, 341.0, 307.0, 48.0 ],
					"text" : "note : the blue (usually mix) know knob does a panning between the mono sum (2d outlet) and the 6 separated channels "
				}

			}
, 			{
				"box" : 				{
					"fontname" : "Arial",
					"fontsize" : 12.0,
					"hidden" : 1,
					"id" : "obj-11",
					"maxclass" : "message",
					"numinlets" : 2,
					"numoutlets" : 1,
					"outlettype" : [ "" ],
					"patching_rect" : [ 418.0, 135.0, 173.0, 18.0 ],
					"text" : "/load PsychiatreHelpCuelist.txt"
				}

			}
, 			{
				"box" : 				{
					"fontname" : "Arial",
					"fontsize" : 12.0,
					"hidden" : 1,
					"id" : "obj-8",
					"maxclass" : "newobj",
					"numinlets" : 0,
					"numoutlets" : 1,
					"outlettype" : [ "" ],
					"patching_rect" : [ 417.0, 110.0, 162.0, 20.0 ],
					"text" : "j.initialized /cueManager"
				}

			}
, 			{
				"box" : 				{
					"args" : [ "/cueManager" ],
					"id" : "obj-7",
					"maxclass" : "bpatcher",
					"name" : "jmod.cueManager.maxpat",
					"numinlets" : 1,
					"numoutlets" : 1,
					"outlettype" : [ "" ],
					"patching_rect" : [ 417.0, 157.0, 300.0, 70.0 ],
					"presentation_rect" : [ 0.0, 0.0, 300.0, 70.0 ]
				}

			}
, 			{
				"box" : 				{
					"args" : [ "/MultiIn~" ],
					"id" : "obj-6",
					"maxclass" : "bpatcher",
					"name" : "jmod.sur.multi.in~.maxpat",
					"numinlets" : 33,
					"numoutlets" : 2,
					"outlettype" : [ "", "" ],
					"patching_rect" : [ 417.0, 463.0, 300.0, 35.0 ],
					"presentation_rect" : [ 425.0, 412.0, 300.0, 35.0 ]
				}

			}
, 			{
				"box" : 				{
					"args" : [ "/MultiOut~" ],
					"id" : "obj-5",
					"maxclass" : "bpatcher",
					"name" : "jmod.sur.output~.maxpat",
					"numinlets" : 2,
					"numoutlets" : 1,
					"outlettype" : [ "" ],
					"patching_rect" : [ 417.0, 514.0, 300.0, 70.0 ],
					"presentation_rect" : [ 0.0, 0.0, 300.0, 70.0 ]
				}

			}
, 			{
				"box" : 				{
					"args" : [ "@name", "jmod.psychiatre~", "@description", "Voice pitching and more based on IRCAM's psychoirtrist~" ],
					"bgmode" : 1,
					"id" : "obj-2",
					"maxclass" : "bpatcher",
					"name" : "j.maxhelpui.maxpat",
					"numinlets" : 1,
					"numoutlets" : 0,
					"patching_rect" : [ 0.0, 0.0, 768.0, 70.0 ],
					"prototypename" : "bphelp",
					"varname" : "maxhelpui"
				}

			}
, 			{
				"box" : 				{
					"args" : [ "/output~" ],
					"id" : "obj-3",
					"maxclass" : "bpatcher",
					"name" : "jmod.output~.maxpat",
					"numinlets" : 3,
					"numoutlets" : 1,
					"outlettype" : [ "" ],
					"patching_rect" : [ 68.0, 463.0, 300.0, 140.0 ],
					"presentation_rect" : [ 15.0, 15.0, 300.0, 140.0 ]
				}

			}
, 			{
				"box" : 				{
					"args" : [ "/input~" ],
					"id" : "obj-15",
					"maxclass" : "bpatcher",
					"name" : "jmod.input~.maxpat",
					"numinlets" : 1,
					"numoutlets" : 3,
					"outlettype" : [ "", "signal", "signal" ],
					"patching_rect" : [ 71.0, 129.0, 300.0, 140.0 ],
					"presentation_rect" : [ 15.0, 15.0, 300.0, 140.0 ],
					"varname" : "/input~"
				}

			}
, 			{
				"box" : 				{
					"args" : [ "/psychiatre" ],
					"id" : "obj-1",
					"maxclass" : "bpatcher",
					"name" : "jmod.psychiatre~.maxpat",
					"numinlets" : 2,
					"numoutlets" : 8,
					"outlettype" : [ "", "signal", "signal", "signal", "signal", "signal", "signal", "signal" ],
					"patching_rect" : [ 80.0, 326.0, 300.0, 70.0 ],
					"presentation_rect" : [ 0.0, 0.0, 300.0, 70.0 ]
				}

			}
 ],
		"lines" : [ 			{
				"patchline" : 				{
					"destination" : [ "obj-3", 2 ],
					"hidden" : 0,
					"midpoints" : [ 129.642853, 445.0, 358.5, 445.0 ],
					"source" : [ "obj-1", 1 ]
				}

			}
, 			{
				"patchline" : 				{
					"destination" : [ "obj-3", 1 ],
					"hidden" : 0,
					"midpoints" : [ 129.642853, 444.0, 218.0, 444.0 ],
					"source" : [ "obj-1", 1 ]
				}

			}
, 			{
				"patchline" : 				{
					"destination" : [ "obj-6", 6 ],
					"hidden" : 0,
					"midpoints" : [ 370.5, 429.0, 479.1875, 429.0 ],
					"source" : [ "obj-1", 7 ]
				}

			}
, 			{
				"patchline" : 				{
					"destination" : [ "obj-6", 5 ],
					"hidden" : 0,
					"midpoints" : [ 330.357147, 429.0, 470.40625, 429.0 ],
					"source" : [ "obj-1", 6 ]
				}

			}
, 			{
				"patchline" : 				{
					"destination" : [ "obj-6", 4 ],
					"hidden" : 0,
					"midpoints" : [ 290.214294, 429.0, 461.625, 429.0 ],
					"source" : [ "obj-1", 5 ]
				}

			}
, 			{
				"patchline" : 				{
					"destination" : [ "obj-6", 3 ],
					"hidden" : 0,
					"midpoints" : [ 250.071426, 429.0, 452.84375, 429.0 ],
					"source" : [ "obj-1", 4 ]
				}

			}
, 			{
				"patchline" : 				{
					"destination" : [ "obj-6", 2 ],
					"hidden" : 0,
					"midpoints" : [ 209.928574, 429.0, 444.0625, 429.0 ],
					"source" : [ "obj-1", 3 ]
				}

			}
, 			{
				"patchline" : 				{
					"destination" : [ "obj-6", 1 ],
					"hidden" : 0,
					"midpoints" : [ 169.785721, 429.0, 435.28125, 429.0 ],
					"source" : [ "obj-1", 2 ]
				}

			}
, 			{
				"patchline" : 				{
					"destination" : [ "obj-7", 0 ],
					"hidden" : 1,
					"midpoints" : [  ],
					"source" : [ "obj-11", 0 ]
				}

			}
, 			{
				"patchline" : 				{
					"destination" : [ "obj-1", 1 ],
					"hidden" : 0,
					"midpoints" : [ 221.0, 297.0, 370.5, 297.0 ],
					"source" : [ "obj-15", 1 ]
				}

			}
, 			{
				"patchline" : 				{
					"destination" : [ "obj-5", 0 ],
					"hidden" : 0,
					"midpoints" : [  ],
					"source" : [ "obj-6", 0 ]
				}

			}
, 			{
				"patchline" : 				{
					"destination" : [ "obj-11", 0 ],
					"hidden" : 1,
					"midpoints" : [  ],
					"source" : [ "obj-8", 0 ]
				}

			}
 ]
	}

}
